# xmcd
#
# Track frame offsets: 
#        150
#        17013
#        30026
#        57279
#        69420
#        79731
#        90691
#        102255
#        117084
#        130901
#        142531
#        154258
#        168766
#        182293
#        195192
#        211797
#        222997
#        233923
#        246397
#        259341
#
# Disc length: 3621 seconds
#
# Revision: 1
# Processed by: cddbd v1.5.2PL0 Copyright (c) Steve Scherf et al.
# Submitted via: ExactAudioCopy v0.99pb4
#
DISCID=fa0e2314
DTITLE=The Rat Pack - 100 Hits Legends [CD5)
DYEAR=2009
DGENRE=Mix
TTITLE0=Frank Sinatra - I've Got You Under My Skin
TTITLE1=Dean Martin - The Naughty Lady Of Shady Lane
TTITLE2=Sammy Davis Jr. - It's All Right With Me
TTITLE3=Dean Martin - Sway
TTITLE4=Dean Martin - Mambo Italiano
TTITLE5=Frank Sinatra - I Am Loved
TTITLE6=Frank Sinatra - You Do Something To Me
TTITLE7=Sammy Davis Jr. - The Birth Of The Blues
TTITLE8=Frank Sinatra - Learnin' The Blues
TTITLE9=Frank Sinatra - Azure-Te (Paris Blues)
TTITLE10=Sammy Davis Jr. - The Gypsy In My Soul
TTITLE11=Sammy Davis Jr. - The World Is Mine Tonight
TTITLE12=Dean Martin - My Own, My Only, My All
TTITLE13=Frank Sinatra - Little Girl Blue
TTITLE14=Sammy Davis Jr. - The Nearness Of You
TTITLE15=Frank Sinatra - I Thought About You
TTITLE16=Dean Martin - Innamorata
TTITLE17=Sammy Davis Jr. - It Started All Over Again
TTITLE18=Dean Martin - I Got The Sun In The Morning (And The Moon At N
TTITLE18=ight)
TTITLE19=Frank Sinatra - Pennies From Heaven
EXTD=
EXTT0=
EXTT1=
EXTT2=
EXTT3=
EXTT4=
EXTT5=
EXTT6=
EXTT7=
EXTT8=
EXTT9=
EXTT10=
EXTT11=
EXTT12=
EXTT13=
EXTT14=
EXTT15=
EXTT16=
EXTT17=
EXTT18=
EXTT19=
PLAYORDER=
